# xmcd
#
# Track frame offsets:
# 183
# 21040
# 38828
# 62948
# 80030
# 97825
# 112553
# 136670
# 155968
# 169288
# 182905
# 198700
#
# Disc length: 2888 seconds
#
#
# Revision: 0
# Processed by: cddbd v1.5.2PL0 Copyright (c) Steve Scherf et al.
# Submitted via: FreeRIP 2.943 
#
DISCID=9e0b460c
DTITLE=ron sunshine and the smoking section  - Pick it up
DYEAR=1994
DGENRE=road musc
TTITLE0=call you up
TTITLE1=mr. right now
TTITLE2=fly away
TTITLE3=try and try again
TTITLE4=not even if i could
TTITLE5=where are you now?
TTITLE6=outside neighbor
TTITLE7=she won´t believe
TTITLE8=in a hole
TTITLE9=can´t keep you satisfied
TTITLE10=i got to move
TTITLE11=pick it up
EXTD=
EXTT0=
EXTT1=
EXTT2=
EXTT3=
EXTT4=
EXTT5=
EXTT6=
EXTT7=
EXTT8=
EXTT9=
EXTT10=
EXTT11=
PLAYORDER=
